PathFileType	4	(X/Y/Z)	C:/Users/beibeiliu/ov580/test_trc/User3\sequence.21_training_dense_right.trc
DataRate	CameraRate	NumFrames	NumMarkers	Units	OrigDataRate	OrigDataStartFrame	OrigNumFrames
120	120	24	19	mm	120	31	92
Frame#	Time	ThumbCMC			ThumbMCP			ThumbIP			ThumbTip			IndexMCP			IndexPIP			IndexTip			MiddleMCP			MiddlePIP			MiddleTip			RingMCP			RingPIP			RingTip			PinkyMCP			PinkyPIP			PinkyTip			BackHand1			BackHand2			BackHand3	
		X0	Y0	Z0	X1	Y1	Z1	X2	Y2	Z2	X3	Y3	Z3	X4	Y4	Z4	X5	Y5	Z5	X6	Y6	Z6	X7	Y7	Z7	X8	Y8	Z8	X9	Y9	Z9	X10	Y10	Z10	X11	Y11	Z11	X12	Y12	Z12	X13	Y13	Z13	X14	Y14	Z14	X15	Y15	Z15	X16	Y16	Z16	X17	Y17	Z17	X18	Y18	Z18	
30	0.25	53.9692	-21.3248	16.5927	44.03	-39.6023	-12.0874	59.9983	-55.9822	-33.1236	85.9559	-62.4687	-32.5052	52.1046	-12.7015	-57.4901	45.6333	-18.2204	-81.8851	36.4786	-20.7399	-102.579	82.4277	-18.3819	-66.9306	78.0801	-22.3811	-94.413	72.8479	-27.9784	-123.593	103.403	-26.8035	-59.3202	102.163	-27.6955	-83.0714	106.96	-34.3801	-111.441	118.894	-41.5814	-42.6391	125.826	-46.3966	-62.3889	137.014	-48.6763	-78.0822	108.961	-14.2377	-10.363	114.44	-8.86735	16.7264	80.2033	1.63483	6.23086	
31	0.258333	54.4407	-22.016	17.9091	44.9173	-40.6155	-13.6677	60.0213	-56.0803	-34.2488	88.9067	-64.1128	-34.0329	56.2816	-13.6742	-56.6758	43.4819	-17.156	-82.1153	36.8433	-21.477	-105.208	82.845	-18.0637	-68.3604	79.3156	-23.098	-93.1718	70.6799	-27.1375	-125.313	101.153	-27.1185	-60.4604	103.52	-29.654	-84.0969	102.448	-32.7531	-107.834	120.691	-42.8528	-41.7274	125.562	-47.1923	-60.8136	134.645	-49.0044	-81.2016	106.391	-14.261	-11.3212	113.035	-6.27132	18.5354	82.5383	-0.399512	5.01144	
32	0.266667	51.8813	-20.8652	20.5669	43.3485	-40.388	-14.3657	59.48	-56.5088	-38.0774	88.836	-63.2359	-33.9602	55.5297	-12.3728	-55.8088	40.0912	-16.043	-82.5209	33.9948	-20.4928	-101.948	81.4812	-17.6877	-64.3748	74.8883	-21.2604	-93.5874	73.4058	-27.8784	-123.681	101.392	-27.0157	-58.2581	101.806	-28.3925	-82.7201	105.135	-34.6131	-110.494	118.579	-41.7651	-40.8028	128.801	-48.3402	-59.1258	135.566	-50.8467	-83.2498	109.768	-13.7305	-10.2794	116.469	-10.5016	16.5632	82.4535	-0.251036	2.04607	
33	0.275	53.6362	-21.3338	19.1786	40.6561	-39.8202	-10.5784	56.8506	-56.7173	-34.6459	88.4521	-63.8357	-36.2821	51.4756	-11.1677	-58.8432	42.5166	-15.1093	-80.2082	37.2125	-20.7192	-103.502	84.2655	-18.9254	-63.9812	76.8699	-20.838	-92.6315	71.369	-25.9535	-121.206	102.965	-27.27	-61.3151	104.327	-28.6845	-83.1449	106.929	-35.2063	-107.285	120.287	-41.654	-43.1352	128.275	-47.0702	-59.5006	139.838	-48.9239	-81.7142	108.907	-11.6351	-10.5767	113.7	-8.43863	15.0451	78.7601	1.20156	6.38116	
34	0.283333	55.0274	-21.6543	16.6583	42.4178	-39.2722	-13.708	58.5815	-53.9857	-32.0727	88.3255	-63.9127	-36.8431	56.9332	-13.7759	-58.5726	40.9006	-15.0894	-83.7457	36.0656	-19.6932	-103.377	79.288	-16.8285	-68.0916	76.7892	-21.4543	-91.8775	72.3098	-28.5184	-124.69	100.795	-26.5027	-59.3676	103.941	-29.5048	-81.1517	103.38	-33.483	-111.596	119.808	-42.1212	-42.9333	128.779	-48.2062	-60.4573	136.547	-48.9057	-80.4272	109.617	-15.0074	-8.69884	113.707	-9.21195	18.6732	79.6639	0.163694	3.12323	
35	0.291667	55.7165	-21.7257	20.2412	44.1282	-39.0015	-14.4634	58.5424	-55.7204	-35.9086	86.6776	-61.5617	-32.9288	52.6268	-11.8295	-60.1691	46.3596	-17.419	-80.837	35.2272	-19.175	-102.847	81.8014	-17.6424	-69.4035	78.0471	-22.1164	-93.8116	75.6018	-29.1109	-123.063	104.029	-28.1029	-57.7587	101.939	-28.4797	-84.8102	106.611	-34.6547	-111.946	120.486	-41.5576	-45.0242	126.101	-47.6578	-58.3727	137.059	-51.2838	-80.3196	107.156	-11.5559	-9.82777	114.787	-8.25084	20.5334	82.9293	0.368106	3.88229	
36	0.3	55.2186	-21.6382	16.4766	43.8193	-39.5198	-10.6909	62.61	-55.3196	-37.9867	88.1987	-62.6718	-34.1801	56.8274	-13.2273	-59.8686	43.5256	-15.562	-80.9074	38.6422	-20.9807	-103.289	78.8452	-17.1299	-68.2979	77.6062	-22.9481	-92.2226	70.9229	-27.4347	-125.093	101.901	-27.4375	-57.6776	102.753	-29.8163	-85.35	103.792	-34.423	-111.273	121.281	-43.3248	-40.4759	130.481	-48.6431	-63.187	135.523	-49.2577	-77.4223	106.657	-14.0225	-9.60202	112.701	-7.76268	15.1862	81.9467	0.532873	6.80222	
37	0.308333	56.0349	-23.1566	20.0037	41.8216	-40.4548	-11.7959	61.841	-56.5339	-38.9844	88.9536	-62.9744	-34.0083	55.9357	-13.9965	-58.2164	46.6628	-16.5763	-81.4537	33.6557	-18.818	-104.526	81.3191	-17.702	-68.5625	79.4548	-23.5412	-94.0669	73.6527	-29.6609	-125.426	102.413	-26.8148	-58.2525	102.252	-29.429	-86.1759	101.856	-32.8093	-109.444	122.191	-43.8942	-43.4068	129.334	-48.5497	-63.6099	135.706	-49.374	-82.7422	108.592	-12.903	-9.47339	116.422	-8.80099	14.2579	80.8741	-0.339942	1.10282	
38	0.316667	54.4841	-21.7583	19.9759	41.648	-39.3439	-12.0508	60.4737	-55.3252	-38.211	85.0769	-63.929	-34.9146	54.1717	-13.8849	-62.1455	42.5192	-15.9175	-83.574	34.195	-21.1632	-106.885	83.275	-18.9488	-67.8015	75.6922	-22.2319	-93.2626	69.2775	-27.6803	-125.947	99.7361	-26.7318	-62.3504	103.354	-29.058	-82.586	101.177	-32.4025	-109.817	119.646	-42.8859	-42.3404	127.878	-48.8353	-59.0521	134.007	-49.9791	-79.8465	106.809	-14.554	-9.90007	112.62	-8.26155	14.1002	81.7239	1.13701	1.48456	
39	0.325	50.5641	-20.5809	19.4487	43.9558	-38.1228	-15.0306	62.331	-53.1814	-35.6737	84.3204	-62.9518	-33.772	53.3363	-12.3561	-56.0211	41.8205	-14.1575	-80.3872	32.5446	-19.088	-104.889	78.9692	-16.2684	-69.724	76.3627	-22.1754	-96.466	71.2577	-29.287	-126.36	102.358	-27.3932	-63.0598	101.478	-28.2899	-84.9572	101.233	-32.7683	-111.999	117.053	-40.8686	-44.5238	127.81	-47.3624	-62.5129	135.903	-50.623	-83.1051	109.324	-14.9533	-11.3313	115.701	-10.0087	17.2669	80.1445	2.20738	1.63749	
40	0.333333	51.662	-21.0591	17.0383	43.1703	-39.7642	-12.1965	59.8801	-56.001	-35.173	86.3896	-61.849	-32.6454	53.2668	-12.2742	-56.902	44.8686	-17.0914	-81.1467	34.3988	-22.031	-107.463	83.133	-18.865	-67.3375	75.7306	-22.9633	-91.6294	70.6754	-29.6968	-124.603	103.218	-29.7343	-57.8196	101.811	-30.0847	-83.4831	104.488	-34.4323	-108.648	121.289	-44.222	-42.577	129.095	-49.9259	-61.5916	137.67	-52.7637	-80.3916	106.745	-15.0154	-11.1296	115.418	-8.95496	16.585	82.5376	-1.74807	3.48345	
41	0.341667	53.7283	-23.8067	18.7164	41.1988	-42.7273	-10.6133	62.9644	-56.6402	-33.4008	90.1014	-64.4162	-31.2562	51.8397	-13.6071	-56.4665	43.0909	-18.2844	-81.0207	33.0476	-22.0209	-102.429	80.2615	-19.9314	-69.3068	78.2826	-26.2346	-93.3587	72.8669	-33.8225	-124.95	102.778	-31.0638	-60.5864	101.085	-31.4935	-80.569	104.311	-37.7616	-110.902	120.588	-46.1838	-39.5279	126.194	-50.9385	-63.6783	137.012	-55.3755	-78.4011	108.827	-15.6244	-8.47852	113.886	-13.2967	15.4264	79.2478	-1.65627	5.33249	
42	0.35	54.4677	-25.3521	18.2807	42.4802	-44.0023	-9.20974	62.3652	-59.5882	-34.3238	91.0995	-66.3358	-31.6461	53.8602	-17.6318	-59.769	44.5016	-21.1161	-79.321	34.4393	-25.2794	-102.222	82.1496	-23.2429	-68.8951	78.2179	-27.8324	-90.1085	70.9224	-34.0761	-121.997	98.6551	-31.9263	-57.8973	101.336	-33.9294	-82.2919	100.703	-37.4276	-106.001	120.711	-48.097	-39.5434	127.374	-52.7712	-57.6616	136.249	-56.1835	-79.3218	107.673	-17.268	-7.90799	114.596	-14.49	15.7312	78.7236	-4.05019	2.58538	
43	0.358333	51.3428	-25.3573	19.5627	43.2085	-43.0309	-8.83979	59.3011	-58.4821	-32.0828	84.1091	-66.2054	-32.4557	55.4218	-17.6334	-54.9981	40.0092	-19.7215	-82.2561	32.608	-23.9343	-101.61	79.7982	-23.2964	-63.3605	72.6977	-26.3065	-91.3036	67.8426	-32.234	-119.559	99.519	-31.3398	-56.2843	99.6261	-34.0524	-84.0798	103.719	-39.6595	-106.852	120.738	-47.2802	-41.654	123.917	-51.9772	-60.1631	134.388	-56.0199	-79.1962	106.445	-17.5178	-7.42465	113.826	-13.1613	16.1145	82.0614	-5.31563	6.66611	
44	0.366667	55.9626	-24.4067	16.911	42.1992	-37.0992	-8.3271	54.8757	-51.9806	-33.7457	79.2696	-62.7878	-39.6168	53.916	-10.8433	-58.6611	42.9378	-12.9605	-78.8279	38.2088	-17.8757	-104.906	79.8649	-17.2517	-66.2896	77.7455	-20.9905	-92.7092	71.0151	-23.8839	-122.029	101.421	-26.5925	-60.6381	101.521	-26.5063	-84.9514	104.954	-31.0696	-108.121	117.451	-41.6231	-43.0357	127.398	-46.5046	-62.8256	133.003	-46.2936	-81.8111	108.572	-13.5028	-11.4862	115.119	-12.7145	20.554	80.6569	-2.09516	8.1757	
45	0.375	58.1893	-20.068	15.89	42.6229	-26.9573	-13.1308	47.5735	-38.0312	-42.745	69.8166	-51.456	-56.4027	65.0477	-0.32944	-55.0083	51.3047	1.368	-80.5722	45.1498	-0.465542	-108.143	87.5404	-2.23081	-64.5257	84.6281	-1.64754	-89.608	83.8895	-2.91751	-122.865	107.361	-13.3793	-55.6229	111.094	-10.0776	-83.6848	115.156	-9.15441	-108.139	129.199	-29.3352	-44.4098	132.806	-30.6622	-60.7001	148.454	-28.6901	-79.9263	110.561	-7.45716	-7.16951	121.18	-7.98374	22.7128	81.5197	3.12753	6.61998	
46	0.383333	60.1653	-16.0782	10.0031	47.2849	-19.599	-16.3624	43.8543	-26.8344	-49.8519	53.7473	-37.2499	-65.772	73.6432	5.7018	-60.3124	69.75	8.53385	-87.0128	65.6276	8.33893	-116.085	103.268	5.07599	-65.9761	102.614	9.21791	-93.7755	105.08	11.0477	-124.349	121.248	-4.03791	-56.172	127.747	1.73007	-82.6148	134.67	4.97828	-107.42	144.234	-19.5603	-43.2485	154.402	-18.9425	-62.5614	161.508	-14.3416	-78.8167	123.411	-3.99674	-11.4311	125.78	-3.44165	18.1883	91.7245	4.7424	3.66592	
47	0.391667	70.4647	-20.7785	4.99037	51.1425	-23.7905	-23.0596	42.6145	-29.1846	-50.9984	47.2552	-37.2729	-73.5798	84.7677	-3.25308	-67.7027	84.5857	-1.11434	-96.9389	77.2304	-2.35985	-121.042	118.763	-0.919731	-73.2438	119.15	2.42069	-102.163	120.855	4.91011	-132.656	135.585	-8.36868	-59.1886	146.389	-2.96804	-85.636	151.95	-0.524463	-108.157	154.448	-21.4953	-43.4052	163.585	-19.3977	-61.385	176.906	-14.8832	-76.9512	131.035	-3.75365	-11.4337	127.311	-2.8384	18.2563	96.0787	1.12011	-0.285122	
48	0.4	71.2639	-32.6775	-1.45252	54.8439	-40.514	-24.548	44.5619	-49.1841	-53.3384	38.3412	-57.7322	-67.9064	92.4318	-31.3576	-80.9147	85.107	-35.8807	-100.169	86.5677	-41.0381	-124.876	124.35	-27.569	-80.4	123.736	-30.7689	-106.398	127.715	-34.5134	-137.546	140.177	-29.3493	-66.381	150.12	-30.0708	-86.8509	162.931	-32.4672	-116.07	160.195	-38.3151	-42.9859	175.87	-39.1281	-58.8984	185.426	-38.9457	-77.6012	133.219	-16.1956	-16.6606	131.348	-8.4571	7.96753	98.215	-11.1287	-11.1675	
49	0.408333	73.0578	-38.4938	-2.89372	54.7129	-49.9013	-26.3706	38.9609	-60.5582	-43.7699	28.2784	-69.9402	-59.5258	89.9255	-61.1466	-74.2108	82.6506	-73.145	-99.3873	79.2035	-81.7218	-121.327	116.39	-60.0472	-75.6898	122.828	-73.4175	-103.792	121.849	-83.9707	-128.425	141.386	-62.6513	-64.5524	144.227	-69.7122	-84.9159	156.042	-80.3168	-110.16	154.423	-64.8894	-40.7445	171.146	-74.3914	-54.7214	180.692	-79.4523	-71.2139	133.409	-33.5106	-23.2715	129.866	-20.4179	1.22496	99.987	-22.014	-16.8637	
50	0.416667	70.4647	-24.9321	-4.36491	49.2429	-32.1917	-20.9272	32.7215	-42.0453	-38.6758	16.7905	-48.4148	-53.6207	77.3421	-64.7561	-69.9137	67.0966	-76.7903	-89.1898	61.1732	-88.2276	-107.911	104.368	-77.8217	-72.9051	100.174	-91.8106	-90.0808	101.864	-110.854	-114.269	127.435	-84.1723	-55.7531	127.641	-97.2931	-72.9349	132.844	-116.621	-94.8419	140.107	-88.4132	-33.4437	145.888	-102.931	-47.1766	158.245	-118.851	-56.5841	128.869	-46.4509	-24.7103	134.529	-27.4923	-2.24455	104.89	-23.9999	-16.8393	
51	0.425	79.5449	-1.78676	-1.65459	58.203	-6.61497	-23.3034	38.1191	-10.4541	-38.667	20.6495	-10.9276	-53.7026	71.9405	-50.8937	-63.5156	57.2725	-60.5667	-81.5744	43.1511	-68.284	-103.118	89.6466	-71.314	-62.4889	78.5552	-85.7528	-82.0998	66.5824	-103.399	-108.194	105.787	-86.9656	-46.4324	97.0775	-101.665	-67.8764	94.6714	-122.537	-83.6585	114.363	-95.231	-26.2851	114.59	-112.351	-32.1772	115.896	-132.23	-48.6118	123.713	-50.9763	-19.9559	138.482	-35.8641	3.61768	110.117	-17.7302	-17.8098	
52	0.433333	96.7452	15.0997	-5.79819	75.7141	21.8301	-25.7524	56.3176	21.9912	-45.3176	42.7881	30.9998	-58.2671	68.3848	-29.5311	-67.2937	52.9559	-29.4343	-87.7355	38.2488	-39.287	-107.633	76.4738	-56.8734	-63.6727	60.7662	-62.3339	-82.1561	44.3751	-78.7162	-104.554	80.9357	-72.4912	-46.8419	70.0571	-85.1098	-62.1942	57.6612	-102.955	-79.7875	85.9879	-82.7088	-20.7117	76.9222	-99.4149	-29.7301	70.3628	-117.485	-40.1014	115.642	-50.1373	-14.6595	132.478	-35.1239	8.33682	116.327	-15.1248	-15.4952	
53	0.441667	116.274	23.9008	-7.90463	102.578	38.3689	-30.2197	87.9955	47.175	-50.1891	77.8321	58.198	-70.2813	77.5911	-6.4306	-68.2892	63.8562	-4.90663	-88.2001	49.5557	-5.67181	-108.989	70.9395	-31.1078	-64.8717	52.0613	-37.2018	-87.2961	34.3917	-42.6709	-107.264	64.1049	-51.4126	-46.7235	50.8865	-58.2025	-61.5619	32.4819	-64.9746	-83.3775	62.2313	-59.323	-17.1844	47.0587	-71.064	-23.4954	35.1194	-82.8022	-37.06	105.344	-41.7148	-11.5489	123.344	-36.7198	9.48724	122.975	-10.5174	-18.0939	
